<?xml version="1.0" standalone="no"?>
<!DOCTYPE svg PUBLIC "-//W3C//DTD SVG 20010904//EN"
 "http://www.w3.org/TR/2001/REC-SVG-20010904/DTD/svg10.dtd">
<svg version="1.0" xmlns="http://www.w3.org/2000/svg"
 width="1024.000000pt" height="1024.000000pt" viewBox="0 0 1024.000000 1024.000000"
 preserveAspectRatio="xMidYMid meet">
<metadata>
Created by potrace 1.11, written by Peter Selinger 2001-2013
</metadata>
<g transform="translate(0.000000,1024.000000) scale(0.100000,-0.100000)"
fill="#000000" stroke="none">
<path d="M5110 8954 c-65 -20 -218 -99 -267 -137 -23 -17 -73 -58 -113 -90
l-71 -58 -43 44 c-56 59 -163 137 -186 137 -27 0 -40 -22 -50 -86 -6 -33 -10
-60 -10 -61 0 -10 -28 3 -82 38 l-63 40 -7 -42 c-4 -23 -10 -44 -12 -47 -3 -2
-27 9 -53 25 -75 46 -157 82 -225 99 -35 8 -69 17 -77 20 -16 5 26 -54 79
-111 21 -22 56 -65 80 -95 l42 -55 -43 -20 c-36 -16 -65 -20 -159 -19 -129 0
-173 11 -337 90 -51 24 -97 44 -102 44 -4 0 -39 13 -77 29 -139 59 -226 92
-230 88 -3 -3 3 -21 12 -41 10 -19 16 -38 13 -40 -2 -3 -46 6 -98 20 -114 29
-150 30 -237 3 -59 -18 -77 -30 -132 -86 -34 -35 -90 -101 -123 -146 -34 -45
-78 -102 -99 -127 -21 -25 -56 -68 -77 -96 -46 -63 -107 -134 -190 -223 -73
-78 -99 -126 -114 -206 -19 -104 2 -215 69 -355 84 -179 114 -245 134 -299
l20 -53 62 68 c33 37 84 92 112 122 l51 55 72 -221 73 -222 -22 -92 c-59 -247
-68 -319 -79 -589 -8 -217 -5 -209 -140 -356 -61 -66 -83 -84 -111 -88 -198
-32 -303 -79 -398 -179 -228 -241 -197 -711 67 -1021 57 -66 205 -209 301
-291 19 -16 62 -54 95 -85 33 -30 74 -66 90 -78 17 -12 55 -46 86 -74 89 -83
223 -193 394 -325 101 -77 334 -221 443 -273 70 -33 136 -65 147 -71 11 -6 67
-28 125 -48 58 -19 111 -39 118 -43 19 -12 15 -49 -17 -149 -46 -145 -63 -249
-68 -429 -6 -196 8 -287 62 -384 55 -100 115 -147 225 -179 49 -14 58 -21 79
-61 33 -63 123 -143 204 -182 104 -51 114 -96 24 -108 -101 -13 -169 -34 -260
-78 -107 -52 -159 -95 -210 -169 -102 -148 -56 -304 110 -374 64 -27 77 -29
198 -28 74 1 171 8 225 18 103 18 295 79 320 100 8 8 34 23 58 35 65 33 115
89 135 150 44 138 -4 248 -129 294 -160 59 -141 76 116 102 202 21 279 36 349
68 l54 26 58 -130 c32 -71 65 -139 73 -151 25 -35 20 -75 -11 -101 -89 -72
-123 -127 -123 -197 0 -150 167 -281 435 -341 89 -20 312 -17 408 5 111 25
137 38 217 107 87 75 114 123 114 204 0 76 -26 129 -91 181 -88 72 -127 93
-227 121 -103 29 -117 41 -108 89 6 31 22 35 87 21 64 -13 79 -7 110 41 15 23
34 35 71 47 50 14 114 62 114 83 0 6 -29 14 -65 17 -36 4 -67 11 -70 14 -2 4
26 25 62 46 36 21 78 49 94 63 43 35 79 103 85 158 13 110 -35 139 -168 104
-132 -35 -215 -49 -333 -56 -89 -5 -117 -4 -148 9 l-38 16 39 53 c55 73 100
166 124 257 35 136 25 359 -27 551 -26 97 -29 93 83 87 99 -5 188 -31 307 -88
l50 -24 1 -61 c0 -55 4 -65 35 -102 21 -24 47 -75 67 -133 58 -162 113 -222
181 -198 53 19 59 63 34 248 l-6 43 34 -7 c19 -4 64 -22 102 -41 90 -45 135
-56 176 -44 44 12 60 36 61 86 0 55 -20 73 -140 130 -55 26 -100 50 -100 54 0
16 34 20 150 20 113 0 120 1 149 26 23 19 31 34 31 57 0 48 -28 60 -147 65
-57 2 -103 8 -103 12 0 4 26 18 58 30 97 37 118 50 136 86 16 34 16 35 -10 59
-30 28 -70 32 -169 15 -33 -6 -116 -12 -185 -14 -125 -4 -125 -4 -149 -34
l-25 -30 -50 38 c-28 21 -87 53 -130 70 -44 18 -87 36 -95 40 -9 4 -35 16 -59
26 l-43 18 128 51 c285 115 492 247 680 434 130 129 226 280 267 421 27 94 47
116 139 159 45 21 161 71 257 112 96 40 185 79 198 87 25 16 28 46 7 82 -22
38 -19 102 8 141 36 53 94 61 190 24 15 -6 17 -1 17 36 0 65 -36 262 -63 354
-91 297 -269 544 -505 700 -24 16 -49 40 -56 54 -21 41 -53 368 -38 389 33 47
89 153 104 197 17 49 67 256 88 366 l11 57 48 -52 c26 -28 70 -80 98 -116 28
-36 64 -77 80 -93 l29 -27 21 22 c25 26 213 393 264 513 31 73 33 89 34 185 0
154 -14 177 -230 380 -39 36 -88 85 -111 110 -39 44 -174 232 -174 244 0 6
-112 165 -140 199 -17 21 -128 112 -174 143 -112 75 -252 94 -372 49 -36 -14
-68 -25 -70 -25 -2 0 -4 18 -4 39 0 23 -5 41 -13 44 -29 11 -99 -13 -242 -83
-312 -151 -404 -192 -510 -224 -27 -8 -88 -27 -135 -41 -47 -14 -115 -40 -151
-58 l-67 -32 -43 39 c-24 21 -80 55 -124 76 -77 37 -226 90 -252 90 -22 0 -14
16 15 29 15 7 63 33 107 59 58 34 74 48 60 51 -33 6 -127 -20 -212 -59 -45
-21 -84 -36 -87 -33 -3 3 14 43 37 89 22 46 39 86 36 89 -3 3 -52 -16 -108
-41 -56 -25 -105 -44 -107 -41 -3 3 20 39 51 81 56 76 56 76 28 75 -15 -1 -48
-7 -73 -15z m222 -3123 c126 -36 196 -78 295 -176 77 -76 99 -106 133 -176 58
-121 84 -247 76 -374 -7 -125 -25 -197 -77 -305 -35 -70 -57 -100 -133 -175
-65 -64 -110 -99 -156 -121 -126 -60 -163 -69 -310 -69 -146 0 -185 9 -307 68
-131 63 -280 238 -332 390 -31 88 -44 199 -38 300 6 99 37 224 65 266 10 14
27 44 37 66 11 22 58 79 105 126 93 94 182 146 310 180 91 25 245 25 332 0z
m-1940 -72 c131 -44 236 -147 300 -294 52 -118 63 -172 63 -300 -1 -109 -4
-129 -33 -217 -85 -248 -252 -387 -468 -388 -221 -1 -406 170 -474 436 -29
113 -31 192 -4 226 11 14 25 23 31 20 6 -4 13 -59 15 -127 4 -102 9 -131 34
-195 24 -63 41 -88 109 -157 70 -72 87 -84 139 -98 108 -31 215 -11 309 59 49
36 113 131 147 218 31 78 33 91 33 208 0 118 -1 130 -33 209 -59 149 -158 251
-275 282 -98 27 -244 -12 -311 -82 -26 -27 -29 -28 -46 -12 -28 25 -22 59 19
104 101 112 294 159 445 108z m-244 -241 c80 -49 126 -165 102 -255 -30 -108
-74 -164 -147 -182 -64 -17 -123 1 -177 54 -62 60 -66 95 -22 187 20 40 43 96
52 123 26 81 61 109 124 99 19 -3 50 -15 68 -26z m349 -433 c34 -34 35 -38 31
-92 -4 -49 -10 -61 -41 -90 -41 -37 -74 -42 -113 -17 -34 23 -54 65 -54 116 0
51 21 85 64 104 50 22 75 17 113 -21z m-212 -227 c34 -40 33 -82 -4 -119 -40
-40 -81 -39 -115 2 -32 37 -33 77 -5 113 41 52 83 53 124 4z m-221 -314 c97
-25 138 -76 112 -138 -45 -109 -223 -153 -389 -97 -94 32 -117 73 -82 141 18
35 90 74 173 94 76 19 113 19 186 0z m370 -24 c14 -5 32 -20 41 -34 46 -69
-69 -127 -152 -76 -86 52 11 149 111 110z m2406 -20 c111 -30 150 -65 150
-135 0 -67 -38 -102 -150 -141 -75 -25 -98 -29 -200 -28 -95 0 -125 4 -173 23
-59 23 -132 73 -151 103 -12 20 1 67 24 79 25 14 212 101 250 115 47 19 145
12 250 -16z m-1940 -1040 c4 0 59 -38 121 -85 103 -77 117 -92 147 -150 41
-81 48 -134 28 -205 -9 -30 -25 -95 -37 -144 -25 -102 -25 -101 60 -111 31 -3
117 -15 191 -25 74 -10 151 -20 170 -22 l35 -3 -3 41 c-3 35 1 45 24 63 15 12
39 24 53 28 48 12 112 44 118 60 3 8 -12 54 -35 102 -52 109 -52 109 -36 149
9 21 12 54 8 90 l-5 57 53 31 c68 41 147 64 217 64 31 0 85 5 121 10 36 5 137
17 225 25 88 9 172 18 186 21 24 5 27 1 33 -32 15 -77 53 -105 174 -128 96
-18 114 -26 129 -58 20 -42 54 -213 68 -343 13 -128 -31 -339 -82 -387 -103
-97 -650 -243 -1058 -282 -195 -18 -681 -29 -759 -16 -189 31 -308 171 -338
396 -22 161 20 417 124 767 23 77 33 97 44 93 9 -3 19 -6 24 -6z m2521 -1128
c17 -15 22 -29 22 -64 -2 -100 -37 -132 -285 -263 -21 -11 -38 -25 -38 -32 0
-7 3 -12 8 -11 13 4 163 -25 167 -32 7 -11 -13 -17 -104 -30 -45 -7 -83 -16
-86 -20 -2 -4 4 -15 15 -25 19 -17 29 -52 13 -42 -5 3 -24 8 -43 11 -19 3 -56
9 -82 14 -26 5 -50 7 -53 4 -3 -3 -5 -31 -5 -63 l0 -58 -36 -7 c-19 -3 -58 -4
-86 -2 -42 4 -57 11 -80 37 -41 45 -37 67 12 75 22 3 40 8 40 10 0 2 -7 20
-16 41 -18 43 -14 51 15 35 32 -17 104 -14 144 5 21 9 37 21 37 27 0 5 -39 27
-87 49 -59 27 -83 43 -76 50 6 6 43 19 82 29 88 22 136 54 210 138 59 68 116
103 204 127 70 18 81 18 108 -3z"/>
<path d="M4942 5644 c-97 -26 -163 -64 -237 -138 -75 -76 -113 -142 -139 -242
-66 -256 79 -534 325 -620 190 -67 405 -28 539 98 126 118 175 229 175 393 0
135 -28 219 -111 327 -72 92 -163 152 -281 183 -71 19 -201 18 -271 -1z m28
-95 c102 -23 183 -132 183 -249 1 -155 -115 -263 -267 -247 -65 6 -98 23 -153
75 -42 40 -73 113 -73 172 0 59 29 125 72 165 71 67 83 75 129 84 60 12 58 12
109 0z m494 -470 c112 -88 38 -269 -100 -243 -98 18 -134 161 -57 228 46 40
116 47 157 15z m-286 -239 c57 -35 62 -90 12 -140 -20 -20 -71 -27 -104 -14
-26 10 -58 71 -50 96 10 32 62 78 88 78 11 0 36 -9 54 -20z"/>
</g>
</svg>
